<?xml version="1.0" encoding="utf-8"?>
<!-- Generator: Adobe Illustrator 20.1.0, SVG Export Plug-In . SVG Version: 6.00 Build 0)  -->
<svg version="1.1" id="Layer_1" xmlns:sketch="http://www.bohemiancoding.com/sketch/ns"
	 xmlns="http://www.w3.org/2000/svg" xmlns:xlink="http://www.w3.org/1999/xlink" x="0px" y="0px" viewBox="0 0 32 32"
	 style="enable-background:new 0 0 32 32;" xml:space="preserve">
<style type="text/css">
	.st0{fill:#FFFFFF;}
</style>
<title></title>
<desc></desc>
<g id="Page-1">
	<g id="icon-62-face-moustache">
		<path id="face-moustache" class="st0" d="M16.5,20.8c0.4,0.8,1.4,2,3.3,2.1c2.7,0.1,5.2-2.4,5.2-3.3c-1,1.1-2.8,1.2-3.7,0.8
			c-1.4-0.7-1.2-2-2.2-2.9c-0.6-0.5-1.4-0.5-2.1,0c-0.1,0.1-0.3,0.2-0.4,0.4c-0.1-0.1-0.2-0.3-0.4-0.4c-0.7-0.5-1.6-0.5-2.1,0
			c-1,0.9-0.8,2.2-2.2,2.9c-1,0.5-2.7,0.4-3.7-0.8c0,0.9,2.5,3.4,5.2,3.3C15.1,22.8,16.1,21.5,16.5,20.8L16.5,20.8z M16.5,29
			C23.4,29,29,23.4,29,16.5S23.4,4,16.5,4S4,9.6,4,16.5S9.6,29,16.5,29L16.5,29z M16.5,28C22.9,28,28,22.9,28,16.5S22.9,5,16.5,5
			S5,10.1,5,16.5S10.1,28,16.5,28L16.5,28z M12,14c0.6,0,1-0.4,1-1s-0.4-1-1-1s-1,0.4-1,1S11.4,14,12,14L12,14z M21,14
			c0.6,0,1-0.4,1-1s-0.4-1-1-1s-1,0.4-1,1S20.4,14,21,14L21,14z"/>
	</g>
</g>
</svg>
