<svg xmlns="http://www.w3.org/2000/svg" xmlns:xlink="http://www.w3.org/1999/xlink" version="1.1" style="enable-background:new 0 0 48 48;" xml:space="preserve" width="46" height="38"><rect id="backgroundrect" width="100%" height="100%" x="0" y="0" fill="none" stroke="none"/>
<style type="text/css">
	.st0{fill:#FFFFFF;}
</style>

<g class="currentLayer"><title>Layer 1</title><path class="st0" d="M42,38 H4 c-2.2,0 -4,-1.8 -4,-4 V4 c0,-2.2 1.8,-4 4,-4 h38 c2.2,0 4,1.8 4,4 v30 C46,36.2 44.2,38 42,38 zM44,4 c0,-1.1 -0.9,-2 -2,-2 H4 C2.9,2 2,2.9000000000000004 2,4 v6 h42 V4 zM44,12 H2 v22 c0,1.1 0.9,2 2,2 h38 c1.1,0 2,-0.9 2,-2 V12 zM40,26 h-2 c-0.6000000000000001,0 -1,-0.4 -1,-1 v-2 c0,-0.6000000000000001 0.4,-1 1,-1 h2 c0.6000000000000001,0 1,0.4 1,1 v2 C41,25.6 40.6,26 40,26 zM40,19 h-2 c-0.6000000000000001,0 -1,-0.4 -1,-1 v-2 c0,-0.6000000000000001 0.4,-1 1,-1 h2 c0.6000000000000001,0 1,0.4 1,1 v2 C41,18.6 40.6,19 40,19 zM32,26 h-2 c-0.6000000000000001,0 -1,-0.4 -1,-1 v-2 c0,-0.6000000000000001 0.4,-1 1,-1 h2 c0.6000000000000001,0 1,0.4 1,1 v2 C33,25.6 32.6,26 32,26 zM32,19 h-2 c-0.6000000000000001,0 -1,-0.4 -1,-1 v-2 c0,-0.6000000000000001 0.4,-1 1,-1 h2 c0.6000000000000001,0 1,0.4 1,1 v2 C33,18.6 32.6,19 32,19 zM24,26 h-2 c-0.6000000000000001,0 -1,-0.4 -1,-1 v-2 c0,-0.6000000000000001 0.4,-1 1,-1 h2 c0.6000000000000001,0 1,0.4 1,1 v2 C25,25.6 24.6,26 24,26 zM24,19 h-2 c-0.6000000000000001,0 -1,-0.4 -1,-1 v-2 c0,-0.6000000000000001 0.4,-1 1,-1 h2 c0.6000000000000001,0 1,0.4 1,1 v2 C25,18.6 24.6,19 24,19 zM16,33 h-2 c-0.6000000000000001,0 -1,-0.4 -1,-1 v-2 c0,-0.6000000000000001 0.4,-1 1,-1 h2 c0.6000000000000001,0 1,0.4 1,1 v2 C17,32.6 16.6,33 16,33 zM16,26 h-2 c-0.6000000000000001,0 -1,-0.4 -1,-1 v-2 c0,-0.6000000000000001 0.4,-1 1,-1 h2 c0.6000000000000001,0 1,0.4 1,1 v2 C17,25.6 16.6,26 16,26 zM16,19 h-2 c-0.6000000000000001,0 -1,-0.4 -1,-1 v-2 c0,-0.6000000000000001 0.4,-1 1,-1 h2 c0.6000000000000001,0 1,0.4 1,1 v2 C17,18.6 16.6,19 16,19 zM8,33 H6 c-0.6000000000000001,0 -1,-0.4 -1,-1 v-2 c0,-0.6000000000000001 0.4,-1 1,-1 h2 c0.6000000000000001,0 1,0.4 1,1 v2 C9,32.6 8.6,33 8,33 zM8,26 H6 c-0.6000000000000001,0 -1,-0.4 -1,-1 v-2 c0,-0.6000000000000001 0.4,-1 1,-1 h2 c0.6000000000000001,0 1,0.4 1,1 v2 C9,25.6 8.6,26 8,26 zM22,29 h2 c0.6000000000000001,0 1,0.4 1,1 v2 c0,0.6000000000000001 -0.4,1 -1,1 h-2 c-0.6000000000000001,0 -1,-0.4 -1,-1 v-2 C21,29.4 21.4,29 22,29 z" id="svg_1"/></g></svg>