<?xml version="1.0" encoding="utf-8"?>
<!-- Generator: Adobe Illustrator 21.1.0, SVG Export Plug-In . SVG Version: 6.00 Build 0)  -->
<svg version="1.1" id="Layer_1" xmlns="http://www.w3.org/2000/svg" xmlns:xlink="http://www.w3.org/1999/xlink" x="0px" y="0px"
	 viewBox="0 0 512 512" style="enable-background:new 0 0 512 512;" xml:space="preserve">
<style type="text/css">
	.st0{fill:#eb5353;stroke:#eb5353;stroke-miterlimit:10;}
</style>
<path class="st0" d="M340.8,98.4c50.7,0,91.9,41.3,91.9,92.3c0,26.2-10.9,49.8-28.3,66.6L256,407.1L105,254.6
	c-15.8-16.6-25.6-39.1-25.6-63.9c0-51,41.1-92.3,91.9-92.3c38.2,0,70.9,23.4,84.8,56.8C269.8,121.9,302.6,98.4,340.8,98.4 M340.8,83
	C307,83,276,98.8,256,124.8c-20-26-51-41.8-84.8-41.8C112.1,83,64,131.3,64,190.7c0,27.9,10.6,54.4,29.9,74.6L245.1,418l10.9,11
	l10.9-11l148.3-149.8c21-20.3,32.8-47.9,32.8-77.5C448,131.3,399.9,83,340.8,83L340.8,83z"/>
<g id="Layer_2">
	<path class="st0" d="M180.3,295.6h-12.9c-52.3,0-94.8-42.4-94.8-94.8v-12.9c0-52.3,42.4-94.8,94.8-94.8h12.9
		c52.3,0,94.8,42.4,94.8,94.8v12.9C275.1,253.1,232.6,295.6,180.3,295.6z"/>
	<path class="st0" d="M347,290.9h-12.9c-52.3,0-94.8-42.4-94.8-94.8v-12.9c0-52.3,42.4-94.8,94.8-94.8H347
		c52.3,0,94.8,42.4,94.8,94.8v12.9C441.8,248.5,399.4,290.9,347,290.9z"/>
	<rect x="239.9" y="241.4" class="st0" width="32.1" height="165.7"/>
	<rect x="265" y="265.8" class="st0" width="72.8" height="72.8"/>
	<rect x="170.3" y="262.1" class="st0" width="72.8" height="72.8"/>
	<path class="st0" d="M177.2,285.8h-13.8c-7.5,0-13.6,6.1-13.6,13.6v5.6c0,7.5,6.1,13.6,13.6,13.6h13.8c7.5,0,13.6-6.1,13.6-13.6
		v-5.6C190.8,291.9,184.7,285.8,177.2,285.8z"/>
	<path class="st0" d="M164.8,269.4h-13.8c-7.5,0-13.6,6.1-13.6,13.6v5.6c0,7.5,6.1,13.6,13.6,13.6h13.8c7.5,0,13.6-6.1,13.6-13.6
		V283C178.5,275.5,172.4,269.4,164.8,269.4z"/>
	<path class="st0" d="M371.9,269.4h-13.8c-7.5,0-13.6,6.1-13.6,13.6v5.6c0,7.5,6.1,13.6,13.6,13.6h13.8c7.5,0,13.6-6.1,13.6-13.6
		V283C385.5,275.5,379.4,269.4,371.9,269.4z"/>
	<path class="st0" d="M351.4,282.1h-13.8c-7.5,0-13.6,6.1-13.6,13.6v5.6c0,7.5,6.1,13.6,13.6,13.6h13.8c7.5,0,13.6-6.1,13.6-13.6
		v-5.6C365,288.2,358.9,282.1,351.4,282.1z"/>
	<path class="st0" d="M341.9,295.6h-13.8c-7.5,0-13.6,6.1-13.6,13.6v5.6c0,7.5,6.1,13.6,13.6,13.6h13.8c7.5,0,13.6-6.1,13.6-13.6
		v-5.6C355.5,301.7,349.4,295.6,341.9,295.6z"/>
	<path class="st0" d="M287.8,328.4H274c-7.5,0-13.6,6.1-13.6,13.6v5.6c0,7.5,6.1,13.6,13.6,13.6h13.8c7.5,0,13.6-6.1,13.6-13.6V342
		C301.4,334.4,295.3,328.4,287.8,328.4z"/>
	<path class="st0" d="M316.8,322.2H303c-7.5,0-13.6,6.1-13.6,13.6v5.6c0,7.5,6.1,13.6,13.6,13.6h13.8c7.5,0,13.6-6.1,13.6-13.6v-5.6
		C330.4,328.3,324.3,322.2,316.8,322.2z"/>
	<path class="st0" d="M300.2,338.6h-9.4c-8.7,0-15.8,7.1-15.8,15.8v1.2c0,8.7,7.1,15.8,15.8,15.8h9.4c8.7,0,15.8-7.1,15.8-15.8v-1.2
		C316,345.7,309,338.6,300.2,338.6z"/>
	<path class="st0" d="M280.7,358.2h-9.4c-8.7,0-15.8,7.1-15.8,15.8v1.2c0,8.7,7.1,15.8,15.8,15.8h9.4c8.7,0,15.8-7.1,15.8-15.8V374
		C296.5,365.3,289.5,358.2,280.7,358.2z"/>
	<rect x="183" y="278.5" class="st0" width="72.8" height="72.8"/>
	<rect x="216.2" y="302.2" class="st0" width="72.8" height="72.8"/>
	<rect x="200.6" y="347.9" class="st0" width="20.7" height="20.7"/>
	<rect x="224.9" y="370.3" class="st0" width="20.7" height="20.7"/>
</g>
</svg>
