<?xml version="1.0" encoding="utf-8"?>
<!-- Generator: Adobe Illustrator 20.1.0, SVG Export Plug-In . SVG Version: 6.00 Build 0)  -->
<svg version="1.1" id="Layer_1" xmlns:sketch="http://www.bohemiancoding.com/sketch/ns"
	 xmlns="http://www.w3.org/2000/svg" xmlns:xlink="http://www.w3.org/1999/xlink" x="0px" y="0px" viewBox="0 0 32 32"
	 style="enable-background:new 0 0 32 32;" xml:space="preserve">
<style type="text/css">
	.st0{fill:#FFFFFF;}
</style>
<title></title>
<desc></desc>
<g id="Page-1">
	<g id="icon-26-grinning-face">
		<path id="grinning-face" class="st0" d="M16.5,29C23.4,29,29,23.4,29,16.5S23.4,4,16.5,4S4,9.6,4,16.5S9.6,29,16.5,29L16.5,29z
			 M16.5,28C22.9,28,28,22.9,28,16.5S22.9,5,16.5,5S5,10.1,5,16.5S10.1,28,16.5,28L16.5,28z M12,14c0.6,0,1-0.4,1-1s-0.4-1-1-1
			s-1,0.4-1,1S11.4,14,12,14L12,14z M21,14c0.6,0,1-0.4,1-1s-0.4-1-1-1s-1,0.4-1,1S20.4,14,21,14L21,14z M16.5,21c-3,0-4.5-1-4.5-1
			s1,3,4.5,3s4.5-3,4.5-3S19.5,21,16.5,21L16.5,21z"/>
	</g>
</g>
</svg>
