<svg xmlns:sketch="http://www.bohemiancoding.com/sketch/ns" xmlns="http://www.w3.org/2000/svg" xmlns:xlink="http://www.w3.org/1999/xlink" version="1.1" style="enable-background:new 0 0 24 24;" xml:space="preserve" width="22" height="22"><rect id="backgroundrect" width="100%" height="100%" x="0" y="0" fill="none" stroke="none" class=""/>
<style type="text/css">
	.st0{fill:#FFFFFF;}
</style>
<title/>
<desc/>

<g class="currentLayer"><title>Layer 1</title><g id="miu" class="">
	<g id="Artboard-1">
		<g id="slice">
		</g>
		<path id="common-search-lookup-glyph" class="st0" d="M15.5,13.399999999999977 c1,-1.4 1.5,-3.1 1.5,-4.9 c0,-4.7 -3.8,-8.5 -8.5,-8.5 s-8.5,3.8 -8.5,8.5 s3.8,8.5 8.5,8.5 c1.8,0 3.5,-0.6000000000000002 4.9,-1.5 l0,0 l6.3,6.3 c0.1,0.1 0.3000000000000001,0.1 0.4,0 l1.7000000000000002,-1.7000000000000002 c0.1,-0.1 0.1,-0.3000000000000001 0,-0.4 L15.5,13.399999999999977 zM8.5,15 c3.6,0 6.5,-2.9 6.5,-6.5 s-2.9,-6.5 -6.5,-6.5 s-6.5,2.9 -6.5,6.5 S4.899999999999977,15 8.5,15 z"/>
	</g>
</g></g></svg>